<svg xmlns="http://www.w3.org/2000/svg" xmlns:xlink="http://www.w3.org/1999/xlink" viewBox="0 0 481.74 64.56"><defs><style>.cls-1{fill:#fdb813;}.cls-2{fill:url(#linear-gradient);}</style><linearGradient id="linear-gradient" x1="65.97" y1="0.01" x2="65.97" y2="51.45" gradientTransform="translate(0.19 -0.31) rotate(0.26)" gradientUnits="userSpaceOnUse"><stop offset="0" stop-color="#fdb813"/><stop offset="0.01" stop-color="#fdb813"/><stop offset="0.37" stop-color="#fdb813"/><stop offset="0.69" stop-color="#f29140"/><stop offset="0.82" stop-color="#f18b3a"/><stop offset="1" stop-color="#ee7a29"/></linearGradient></defs><title>Logo_2</title><g id="Layer_2" data-name="Layer 2"><g id="Layer_1-2" data-name="Layer 1"><path class="cls-1" d="M253.19,17.08V51.62h-7.47V44.87c-2.34,4.81-6.69,7-12.34,7-7.92,0-12.66-5.06-12.66-13.31V17.08h7.47V36.49c0,5.2,3.05,8.38,8.05,8.38,6-.13,9.48-4.74,9.48-10.78v-17Z"/><path class="cls-1" d="M289.56,40.84l4.35,4a18.49,18.49,0,0,1-14.93,7c-10.65,0-18-7.07-18-17.53,0-10.13,6.69-17.4,17.34-17.53,9.41-.13,15.71,5.65,16.3,15.06l-25.14,7.54a10.33,10.33,0,0,0,9.94,6.49A13.08,13.08,0,0,0,289.56,40.84ZM268.45,34V34l19-5.65c-1.63-3.9-4.55-5.52-8.64-5.52C272.48,22.86,268.45,26.75,268.45,34Z"/><path class="cls-1" d="M311.64,22.73c-2.92,0-5.06,1-5.06,3.44,0,6.36,18.38,2.92,18.31,15.45,0,7.08-6.3,10.26-13.25,10.26-5.06,0-10.45-1.68-13.89-4.8l2.66-5.33A18.78,18.78,0,0,0,312,46c3.18,0,5.65-1.1,5.65-3.7,0-7.08-18.18-3.12-18.12-15.59,0-7,6.1-10,12.73-10a21.83,21.83,0,0,1,12.08,3.51l-2.73,5.52A20.22,20.22,0,0,0,311.64,22.73Z"/><path class="cls-1" d="M349.77,49.42A16.7,16.7,0,0,1,341.45,52c-5.45,0-9.87-3.77-9.87-11.3V8.89H339v9.48h10.19V24H339V39.35c0,4.09,1.36,5.85,3.83,5.85a11.39,11.39,0,0,0,5.06-1.5Z"/><path class="cls-1" d="M364.7,7.2a4.35,4.35,0,1,1-8.7,0,4.35,4.35,0,1,1,8.7,0Zm-.65,9.88V51.62h-7.4V17.08Z"/><path class="cls-1" d="M407.89,34.29c0,10.45-7.34,17.59-18,17.59s-18-7.14-18-17.59,7.34-17.47,18-17.47S407.89,23.89,407.89,34.29Zm-28.57.13c0,6.68,4.35,11.23,10.58,11.23s10.52-4.55,10.52-11.23-4.35-11.24-10.52-11.24S379.32,27.79,379.32,34.42Z"/><path class="cls-1" d="M448.74,30.13V51.62h-7.47V32.21c0-5.2-3.11-8.38-8.31-8.38-5.71.06-9.28,4-9.8,9.42V51.62h-7.47V17.08h7.47V23.7c2.46-4.81,6.88-6.88,12.72-6.88C443.94,16.82,448.74,21.88,448.74,30.13Z"/><path class="cls-1" d="M468.49,22.73c-2.92,0-5.07,1-5.07,3.44,0,6.36,18.38,2.92,18.32,15.45,0,7.08-6.3,10.26-13.25,10.26-5.07,0-10.46-1.68-13.9-4.8l2.66-5.33A18.81,18.81,0,0,0,468.81,46c3.19,0,5.65-1.1,5.65-3.7,0-7.08-18.18-3.12-18.12-15.59,0-7,6.11-10,12.73-10a21.83,21.83,0,0,1,12.08,3.51l-2.73,5.52A20.22,20.22,0,0,0,468.49,22.73Z"/><path class="cls-1" d="M214.61,29.07c0,12.81-10.37,22.73-23.75,22.73S167.1,41.88,167.1,29.07s10.38-22.6,23.76-22.6S214.61,16.27,214.61,29.07Zm-39.82,0a16.07,16.07,0,0,0,16.13,16,15.88,15.88,0,1,0-16.13-16Z"/><path class="cls-1" d="M19.74,5.91c12.41,0,19.94,7.33,19.94,19.15V51.62h-7.6V39.48H7.66V51.62H0V25.06C0,13.24,7.53,5.91,19.74,5.91Zm.07,6.88c-7.6,0-12.21,4.68-12.15,12.27l-.06,7.6H32.08v-7.6C32,17.47,27.47,12.79,19.81,12.79Z"/><path class="cls-1" d="M128.4,34.48c0,10.33-6.5,17.4-16.37,17.4-5.52,0-9.68-2.2-12.21-6.23V64.22H92.35V17.08h7.47v6c2.53-4,6.69-6.23,12.08-6.23C121.71,16.82,128.4,24,128.4,34.48Zm-7.54-.26c0-6.43-4.35-11.17-10.52-11.17S99.82,27.73,99.82,34.22c0,6.69,4.35,11.3,10.52,11.3S120.86,40.84,120.86,34.22Z"/><path class="cls-1" d="M143.81,45.13a7.36,7.36,0,0,0,3.45-1.1l1,6.1A13.22,13.22,0,0,1,141.8,52c-4.8,0-8.57-3.44-8.57-10.07V3.44h7.4V41.1C140.63,43.9,141.87,45.13,143.81,45.13Z"/><path class="cls-2" d="M53.34,22.21l.65-.35V20.08a1.25,1.25,0,0,1,.33-.84,1.08,1.08,0,0,1,.78-.32h1.25a1.1,1.1,0,0,1,.78.32,1.25,1.25,0,0,1,.32.83v0L62,17.66c0-.69,0-1.34-.05-2a55.75,55.75,0,0,1,.16-8.6c.41-2.8,1.35-5.18,2.54-6.37A2.32,2.32,0,0,1,65.75,0,1.69,1.69,0,0,1,66,0a1.25,1.25,0,0,1,.3,0,2.26,2.26,0,0,1,1.13.68C68.65,1.91,69.59,4.29,70,7.09a55.41,55.41,0,0,1,.16,8.57c0,.64,0,1.3,0,2l4.51,2.43v0a1,1,0,0,1,.32-.77,1.09,1.09,0,0,1,.78-.33H77a1.12,1.12,0,0,1,.77.32,1.1,1.1,0,0,1,.32.78V22l.65.35,3.45,1.85,4.58,2.48a.94.94,0,0,1,.28.21,1.33,1.33,0,0,1,.4.91v2.49a1,1,0,0,1-1.33,1L74.55,28a1.64,1.64,0,0,0-.32,0H70c-.11,4.06-.38,11-.76,14.13,0,.29-.08.57-.11.85l6.28,5.24.08.07a1.5,1.5,0,0,1,.42,1v1.19a1,1,0,0,1-.29.72h0a1,1,0,0,1-1.06.22l-6-2.12a2,2,0,0,0-.26,0h-.68a3.48,3.48,0,0,1-.61.93,1.46,1.46,0,0,1-1,.46h0a1.46,1.46,0,0,1-1-.46,3.55,3.55,0,0,1-.61-.94h-.67a1.28,1.28,0,0,0-.27,0l-6,2.12a1,1,0,0,1-1.36-1V49.22a1.51,1.51,0,0,1,.42-1l.1-.09L62.9,42.9c0-.28-.08-.56-.11-.85-.39-3.13-.63-10.07-.73-14.13H57.82l-.31,0L45.94,31.24a1,1,0,0,1-1-.26,1,1,0,0,1-.29-.73V27.76a1.3,1.3,0,0,1,.39-.91,1.42,1.42,0,0,1,.28-.22l4.59-2.47Z"/><path class="cls-1" d="M173.53,52.1s10.56-4.69,18.18-1.59,7.25,3.72,17.82,6.11l-4.21,7.94a59.1,59.1,0,0,1-10.43-3.8c-6.75-3-8.9-2.62-8.9-2.62a24.27,24.27,0,0,0-9.6,1.59Z"/></g></g></svg>